<?xml version="1.0" encoding="UTF-8" standalone="no"?>
<!-- Generator: Adobe Illustrator 19.0.0, SVG Export Plug-In . SVG Version: 6.00 Build 0)  -->

<svg
   xmlns:dc="http://purl.org/dc/elements/1.1/"
   xmlns:cc="http://creativecommons.org/ns#"
   xmlns:rdf="http://www.w3.org/1999/02/22-rdf-syntax-ns#"
   xmlns:svg="http://www.w3.org/2000/svg"
   xmlns="http://www.w3.org/2000/svg"
   xmlns:sodipodi="http://sodipodi.sourceforge.net/DTD/sodipodi-0.dtd"
   xmlns:inkscape="http://www.inkscape.org/namespaces/inkscape"
   version="1.1"
   id="Layer_1"
   x="0px"
   y="0px"
   viewBox="0 0 512 512"
   style="enable-background:new 0 0 512 512;"
   xml:space="preserve"
   sodipodi:docname="armchair-simple.svg"
   inkscape:version="0.92.3 (2405546, 2018-03-11)"><metadata
   id="metadata69"><rdf:RDF><cc:Work
       rdf:about=""><dc:format>image/svg+xml</dc:format><dc:type
         rdf:resource="http://purl.org/dc/dcmitype/StillImage" /></cc:Work></rdf:RDF></metadata><defs
   id="defs67">
	

		
	
			
			
			
			
			
			
			
			
			
			
			
			
			
		</defs><sodipodi:namedview
   pagecolor="#ffffff"
   bordercolor="#666666"
   borderopacity="1"
   objecttolerance="10"
   gridtolerance="10"
   guidetolerance="10"
   inkscape:pageopacity="0"
   inkscape:pageshadow="2"
   inkscape:window-width="1869"
   inkscape:window-height="1025"
   id="namedview65"
   showgrid="false"
   inkscape:zoom="0.4609375"
   inkscape:cx="-37.966102"
   inkscape:cy="256"
   inkscape:window-x="51"
   inkscape:window-y="27"
   inkscape:window-maximized="1"
   inkscape:current-layer="Layer_1" />















<g
   id="g3840"
   transform="translate(85.333,-17.067)"
   style="fill:#ffffff"><circle
     cx="221.867"
     cy="256"
     r="8.533"
     id="circle2"
     style="fill:#ffffff" /><circle
     cx="119.467"
     cy="153.60001"
     r="8.533"
     id="circle4"
     style="fill:#ffffff" /><circle
     cx="221.867"
     cy="153.60001"
     r="8.533"
     id="circle6"
     style="fill:#ffffff" /><circle
     cx="170.66701"
     cy="204.8"
     r="8.533"
     id="circle8"
     style="fill:#ffffff" /><path
     d="m 42.667,196.267 c 4.71,0 8.533,-3.823 8.533,-8.533 v -25.6 c 0,-42.342 34.458,-76.8 76.8,-76.8 h 85.333 c 42.342,0 76.8,34.458 76.8,76.8 v 25.6 c 0,4.71 3.823,8.533 8.533,8.533 4.71,0 8.533,-3.823 8.533,-8.533 v -25.6 c 0,-51.755 -42.112,-93.867 -93.867,-93.867 H 128 c -51.755,0 -93.867,42.112 -93.867,93.867 v 25.6 c 0,4.71 3.823,8.533 8.534,8.533 z"
     id="path12"
     inkscape:connector-curvature="0"
     style="fill:#ffffff" /><circle
     cx="119.467"
     cy="256"
     r="8.533"
     id="circle20"
     style="fill:#ffffff" /><path
     d="m 315.733,204.8 c -14.114,0 -25.6,11.486 -25.6,25.6 v 51.2 c 0,14.114 -11.486,25.6 -25.6,25.6 H 76.8 c -14.114,0 -25.6,-11.486 -25.6,-25.6 V 230.4 C 51.2,216.286 39.714,204.8 25.6,204.8 11.486,204.8 0,216.286 0,230.4 v 68.267 c 0,51.755 42.112,93.867 93.867,93.867 h 153.6 c 51.755,0 93.867,-42.112 93.867,-93.867 V 230.4 c -10e-4,-14.114 -11.487,-25.6 -25.601,-25.6 z m 8.534,93.867 c 0,42.342 -34.458,76.8 -76.8,76.8 h -153.6 c -42.342,0 -76.8,-34.458 -76.8,-76.8 V 230.4 c 0,-4.702 3.831,-8.533 8.533,-8.533 4.702,0 8.533,3.831 8.533,8.533 v 51.2 c 0,23.526 19.14,42.667 42.667,42.667 h 187.733 c 23.526,0 42.667,-19.14 42.667,-42.667 v -51.2 c 0,-4.702 3.831,-8.533 8.533,-8.533 4.702,0 8.533,3.831 8.533,8.533 v 68.267 z"
     id="path22"
     inkscape:connector-curvature="0"
     style="fill:#ffffff" /><path
     d="m 170.667,452.267 c -4.71,0 -8.533,3.823 -8.533,8.533 v 8.533 c 0,4.71 3.823,8.533 8.533,8.533 4.71,0 8.533,-3.823 8.533,-8.533 V 460.8 c 0,-4.71 -3.823,-8.533 -8.533,-8.533 z"
     id="path24"
     inkscape:connector-curvature="0"
     style="fill:#ffffff" /><path
     d="m 244.053,462.507 -68.267,-51.2 c -0.137,-0.102 -0.299,-0.12 -0.444,-0.213 -0.503,-0.333 -1.033,-0.538 -1.587,-0.751 -0.495,-0.196 -0.956,-0.41 -1.468,-0.512 -0.538,-0.102 -1.067,-0.077 -1.621,-0.077 -0.538,0 -1.067,-0.026 -1.604,0.077 -0.521,0.102 -0.99,0.324 -1.485,0.512 -0.546,0.213 -1.075,0.418 -1.579,0.751 -0.137,0.094 -0.307,0.111 -0.452,0.213 l -68.267,51.2 c -3.772,2.825 -4.531,8.175 -1.707,11.947 1.672,2.236 4.241,3.413 6.835,3.413 1.775,0 3.575,-0.555 5.111,-1.707 l 63.147,-47.36 63.147,47.36 c 1.536,1.152 3.337,1.707 5.111,1.707 2.594,0 5.163,-1.178 6.835,-3.413 2.827,-3.772 2.067,-9.123 -1.705,-11.947 z"
     id="path26"
     inkscape:connector-curvature="0"
     style="fill:#ffffff" /><g
     id="g34"
     style="fill:#ffffff">
</g><g
     id="g36"
     style="fill:#ffffff">
</g><g
     id="g38"
     style="fill:#ffffff">
</g><g
     id="g40"
     style="fill:#ffffff">
</g><g
     id="g42"
     style="fill:#ffffff">
</g><g
     id="g44"
     style="fill:#ffffff">
</g><g
     id="g46"
     style="fill:#ffffff">
</g><g
     id="g48"
     style="fill:#ffffff">
</g><g
     id="g50"
     style="fill:#ffffff">
</g><g
     id="g52"
     style="fill:#ffffff">
</g><g
     id="g54"
     style="fill:#ffffff">
</g><g
     id="g56"
     style="fill:#ffffff">
</g><g
     id="g58"
     style="fill:#ffffff">
</g><g
     id="g60"
     style="fill:#ffffff">
</g><g
     id="g62"
     style="fill:#ffffff">
</g></g>
</svg>