<?xml version="1.0" encoding="UTF-8" standalone="no"?>
<svg
   xmlns:dc="http://purl.org/dc/elements/1.1/"
   xmlns:cc="http://creativecommons.org/ns#"
   xmlns:rdf="http://www.w3.org/1999/02/22-rdf-syntax-ns#"
   xmlns:svg="http://www.w3.org/2000/svg"
   xmlns="http://www.w3.org/2000/svg"
   xmlns:sodipodi="http://sodipodi.sourceforge.net/DTD/sodipodi-0.dtd"
   xmlns:inkscape="http://www.inkscape.org/namespaces/inkscape"
   version="1.1"
   viewBox="0 0 512 512"
   id="svg14"
   sodipodi:docname="armchair-simple-dark-busy.svg"
   inkscape:version="0.92.3 (2405546, 2018-03-11)">
  <metadata
     id="metadata20">
    <rdf:RDF>
      <cc:Work
         rdf:about="">
        <dc:format>image/svg+xml</dc:format>
        <dc:type
           rdf:resource="http://purl.org/dc/dcmitype/StillImage" />
      </cc:Work>
    </rdf:RDF>
  </metadata>
  <defs
     id="defs18" />
  <sodipodi:namedview
     pagecolor="#ffffff"
     bordercolor="#666666"
     borderopacity="1"
     objecttolerance="10"
     gridtolerance="10"
     guidetolerance="10"
     inkscape:pageopacity="0"
     inkscape:pageshadow="2"
     inkscape:window-width="1869"
     inkscape:window-height="1025"
     id="namedview16"
     showgrid="false"
     inkscape:zoom="0.921875"
     inkscape:cx="-61.962072"
     inkscape:cy="76.333123"
     inkscape:window-x="51"
     inkscape:window-y="27"
     inkscape:window-maximized="1"
     inkscape:current-layer="g3840" />
  <g
     id="g3840"
     transform="translate(85.333,-17.067)"
     fill="rgb(62, 62, 64)">
    <circle
       cx="221.867"
       cy="256"
       r="8.533"
       id="circle2" />
    <path
       d="m 42.667,196.267 c 4.71,0 8.533,-3.823 8.533,-8.533 v -25.6 c 0,-42.342 34.458,-76.8 76.8,-76.8 h 85.333 c 42.342,0 76.8,34.458 76.8,76.8 v 25.6 c 0,4.71 3.823,8.533 8.533,8.533 4.71,0 8.533,-3.823 8.533,-8.533 v -25.6 c 0,-51.755 -42.112,-93.867 -93.867,-93.867 H 128 c -51.755,0 -93.867,42.112 -93.867,93.867 v 25.6 c 0,4.71 3.823,8.533 8.534,8.533 z"
       id="path12" />
    <circle
       cx="119.467"
       cy="256"
       r="8.533"
       id="circle20" />
    <path
       d="m 315.733,204.8 c -14.114,0 -25.6,11.486 -25.6,25.6 v 51.2 c 0,14.114 -11.486,25.6 -25.6,25.6 H 76.8 c -14.114,0 -25.6,-11.486 -25.6,-25.6 V 230.4 C 51.2,216.286 39.714,204.8 25.6,204.8 11.486,204.8 0,216.286 0,230.4 v 68.267 c 0,51.755 42.112,93.867 93.867,93.867 h 153.6 c 51.755,0 93.867,-42.112 93.867,-93.867 V 230.4 c -10e-4,-14.114 -11.487,-25.6 -25.601,-25.6 z m 8.534,93.867 c 0,42.342 -34.458,76.8 -76.8,76.8 h -153.6 c -42.342,0 -76.8,-34.458 -76.8,-76.8 V 230.4 c 0,-4.702 3.831,-8.533 8.533,-8.533 4.702,0 8.533,3.831 8.533,8.533 v 51.2 c 0,23.526 19.14,42.667 42.667,42.667 h 187.733 c 23.526,0 42.667,-19.14 42.667,-42.667 v -51.2 c 0,-4.702 3.831,-8.533 8.533,-8.533 4.702,0 8.533,3.831 8.533,8.533 v 68.267 z"
       id="path22" />
    <path
       d="m 170.667,452.267 c -4.71,0 -8.533,3.823 -8.533,8.533 v 8.533 c 0,4.71 3.823,8.533 8.533,8.533 4.71,0 8.533,-3.823 8.533,-8.533 V 460.8 c 0,-4.71 -3.823,-8.533 -8.533,-8.533 z"
       id="path9" />
    <path
       d="m 244.053,462.507 -68.267,-51.2 c -0.137,-0.102 -0.299,-0.12 -0.444,-0.213 -0.503,-0.333 -1.033,-0.538 -1.587,-0.751 -0.495,-0.196 -0.956,-0.41 -1.468,-0.512 -0.538,-0.102 -1.067,-0.077 -1.621,-0.077 -0.538,0 -1.067,-0.026 -1.604,0.077 -0.521,0.102 -0.99,0.324 -1.485,0.512 -0.546,0.213 -1.075,0.418 -1.579,0.751 -0.137,0.094 -0.307,0.111 -0.452,0.213 l -68.267,51.2 c -3.772,2.825 -4.531,8.175 -1.707,11.947 1.672,2.236 4.241,3.413 6.835,3.413 1.775,0 3.575,-0.555 5.111,-1.707 l 63.147,-47.36 63.147,47.36 c 1.536,1.152 3.337,1.707 5.111,1.707 2.594,0 5.163,-1.178 6.835,-3.413 2.827,-3.772 2.067,-9.123 -1.705,-11.947 z"
       id="path11" />
  </g>
  <circle
     style="fill:#000000;fill-opacity:1;stroke:none;stroke-opacity:1"
     id="path827"
     cx="253.69492"
     cy="74.101692"
     r="65.084747" />
  <path
     style="fill:#000000;fill-opacity:1;stroke:none;stroke-width:1px;stroke-linecap:butt;stroke-linejoin:miter;stroke-opacity:1"
     d="m 171.38984,312.40678 v 154.0339 h 60.74576 v -154.0339 c -15.22788,-20.74952 -41.11649,-24.32984 -60.74576,0 z"
     id="path829"
     inkscape:connector-curvature="0"
     sodipodi:nodetypes="ccccc" />
  <path
     style="fill:#000000;fill-opacity:1;stroke:none;stroke-width:1px;stroke-linecap:butt;stroke-linejoin:miter;stroke-opacity:1"
     d="m 278.77967,312.19448 v 154.0339 h 60.74576 v -154.0339 c -15.22788,-20.74952 -41.11649,-24.32984 -60.74576,0 z"
     id="path829-3"
     inkscape:connector-curvature="0"
     sodipodi:nodetypes="ccccc" />
  <path
     style="fill:#000000;fill-opacity:1;stroke:none;stroke-width:1px;stroke-linecap:butt;stroke-linejoin:miter;stroke-opacity:1"
     d="m 197.9661,122.40678 c 38.14689,37.60958 76.29379,30.1968 114.44068,0 51.09922,84.6735 28.86568,125.10979 19.52543,174.64407 -10.09749,-9.16769 -34.519,-10.75781 -53.15255,4.33898 l -50.98305,1.08475 C 218.8264,288.27382 190.12354,288.83423 178.44068,297.59322 141.12394,237.81366 157.66933,180.74906 197.9661,122.40678 Z"
     id="path846"
     inkscape:connector-curvature="0"
     sodipodi:nodetypes="ccccccc" />
</svg>
