<?xml version="1.0" encoding="iso-8859-1"?>
<!-- Generator: Adobe Illustrator 19.0.0, SVG Export Plug-In . SVG Version: 6.00 Build 0)  -->
<svg version="1.1" id="Layer_1" xmlns="http://www.w3.org/2000/svg" xmlns:xlink="http://www.w3.org/1999/xlink" x="0px" y="0px"
	 viewBox="0 0 511.998 511.998" style="enable-background:new 0 0 511.998 511.998;" xml:space="preserve">
<g>
	<g>
		<g>
			<path d="M443.055,177.37c-4.612,0-9.169,0.466-13.63,1.362V98.179c0-26.92-21.901-48.82-48.82-48.82H131.395
				c-26.92,0-48.82,21.901-48.82,48.82v80.553c-4.466-0.896-9.026-1.362-13.644-1.362C30.922,177.37,0,208.292,0,246.302
				c0,32.334,22.676,60.216,53.668,67.229v54.589v37.963c0,3.867,3.135,7.003,7.003,7.003h18.443l7.97,43.804
				c0.606,3.33,3.506,5.75,6.89,5.75h33.503c3.867,0,7.003-3.136,7.003-7.003v-42.55H377.53v42.55c0,3.867,3.136,7.003,7.003,7.003
				h33.504c3.385,0,6.286-2.421,6.89-5.752l7.957-43.801h18.428c3.867,0,7.003-3.136,7.003-7.003v-37.964V313.53
				c31-7.012,53.682-34.895,53.682-67.23C512,208.292,481.072,177.37,443.055,177.37z M96.581,98.179
				c0-19.196,15.617-34.814,34.814-34.814h249.21c19.196,0,34.814,15.617,34.814,34.814v84.966
				c-24.892,10.89-41.294,35.666-41.294,63.157v41.691c-6.929-5.896-15.898-9.465-25.688-9.465H163.549
				c-9.785,0-18.748,3.567-25.674,9.46v-41.686c0-27.493-16.404-52.27-41.294-63.157V98.179z M374.125,318.207v42.907h-236.25
				v-42.907c0-14.156,11.517-25.674,25.674-25.674h184.887C362.601,292.534,374.125,304.051,374.125,318.207z M61.596,300.735
				c-27.13-3.611-47.589-27.013-47.589-54.434c0-30.286,24.639-54.925,54.924-54.925c6.296,0,12.456,1.051,18.316,3.125
				c21.904,7.733,36.622,28.549,36.622,51.8v114.814H67.675v-53.437C67.675,304.167,65.075,301.199,61.596,300.735z
				 M120.475,448.632H99.82l-6.468-35.547h27.123V448.632z M412.193,448.632h-20.654v-35.547h27.112L412.193,448.632z
				 M67.675,399.079v-23.957H444.31v23.957H67.675z M450.39,300.735c-3.479,0.463-6.079,3.432-6.079,6.943v53.437h-56.18V246.3
				c0-23.251,14.718-44.067,36.628-51.801c5.855-2.072,12.011-3.122,18.296-3.122c30.293,0,54.938,24.639,54.938,54.925
				C497.993,273.722,477.528,297.125,450.39,300.735z"/>
			<path d="M172.166,181.054h15.709v15.709c0,3.867,3.136,7.003,7.003,7.003c3.867,0,7.003-3.136,7.003-7.003v-15.709h15.708
				c3.867,0,7.003-3.136,7.003-7.003s-3.136-7.003-7.003-7.003h-15.708v-15.708c0-3.867-3.136-7.003-7.003-7.003
				c-3.867,0-7.003,3.136-7.003,7.003v15.708h-15.709c-3.867,0-7.003,3.136-7.003,7.003S168.299,181.054,172.166,181.054z"/>
			<path d="M294.41,181.054h15.709v15.709c0,3.867,3.136,7.003,7.003,7.003s7.003-3.136,7.003-7.003v-15.709h15.708
				c3.867,0,7.003-3.136,7.003-7.003s-3.136-7.003-7.003-7.003h-15.708v-15.708c0-3.867-3.136-7.003-7.003-7.003
				s-7.003,3.136-7.003,7.003v15.708H294.41c-3.867,0-7.003,3.136-7.003,7.003S290.542,181.054,294.41,181.054z"/>
			<path d="M97.957,246.521c0-16.005-13.022-29.027-29.027-29.027s-29.027,13.022-29.027,29.027s13.022,29.027,29.027,29.027
				S97.957,262.527,97.957,246.521z M53.911,246.521c0-8.283,6.737-15.02,15.02-15.02c7.166,0,13.165,5.047,14.656,11.77
				c-0.289,3.055-0.57,6.109-0.836,9.128c-2.292,5.369-7.623,9.142-13.82,9.142C60.648,261.541,53.911,254.804,53.911,246.521z"/>
			<path d="M443.055,217.494c-16.005,0-29.027,13.022-29.027,29.027s13.022,29.027,29.027,29.027s29.027-13.022,29.027-29.027
				S459.06,217.494,443.055,217.494z M443.055,261.541c-8.283,0-15.02-6.737-15.02-15.02c0-8.283,6.737-15.02,15.02-15.02
				s15.02,6.737,15.02,15.02C458.075,254.804,451.338,261.541,443.055,261.541z"/>
		</g>
	</g>
</g>
<g>
</g>
<g>
</g>
<g>
</g>
<g>
</g>
<g>
</g>
<g>
</g>
<g>
</g>
<g>
</g>
<g>
</g>
<g>
</g>
<g>
</g>
<g>
</g>
<g>
</g>
<g>
</g>
<g>
</g>
</svg>
